UFC 113 Machida Vs Shogun 2 [SatRiP-XviD-Mp3-ENG][TNTVillage.Scambioetico]



General
Complete name                    : C:UFC.113.Machida.Vs.Shogun.2.DSR.XviD-XWT.avi
Format                           : AVI
Format/Info                      : Audio Video Interleave
File size                        : 1.32 GiB
Duration                         : 2h 42mn
Overall bit rate                 : 1 163 Kbps

Video
Format                           : MPEG-4 Visual
Format profile                   : Streaming Video@L1
Format settings, BVOP            : Yes
Format settings, QPel            : No
Format settings, GMC             : No warppoints
Format settings, Matrix          : Default
Codec ID                         : XVID
Codec ID/Hint                    : XviD
Duration                         : 2h 42mn
Bit rate                         : 1 023 Kbps
Width                            : 640 pixels
Height                           : 368 pixels
Display aspect ratio             : 16/9
Frame rate                       : 25.000 fps
Resolution                       : 24 bits
Colorimetry                      : 4:2:0
Scan type                        : Progressive
Bits/(Pixel*Frame)               : 0.174
Stream size                      : 1.16 GiB (88%)
Writing library                  : XviD 1.1.2 (UTC 2006-11-01)

Audio
Format                           : MPEG Audio
Format version                   : Version 1
Format profile                   : Layer 3
Codec ID                         : 55
Codec ID/Hint                    : MP3
Duration                         : 2h 42mn
Bit rate mode                    : Constant
Bit rate                         : 128 Kbps
Channel(s)                       : 2 channels
Sampling rate                    : 44.1 KHz
Resolution                       : 16 bits
Stream size                      : 149 MiB (11%)
Alignment                        : Aligned on interleaves
Interleave, duration             : 26 ms (0.65 video frame)
Interleave, preload duration     : 809 ms

 
http://uptiki.com/images/5ijn3bf9q8m49jrg8p0.png 
http://uptiki.com/images/s6xd4dadfkre6yqq7vef.png 
http://uptiki.com/images/ih5ayimmfb357adxjl8l.png 
http://uptiki.com/images/q52gyx2h28ijvk6hfk8.png 
http://uptiki.com/images/ont7jf7wshxz45a6q.png 
http://uptiki.com/images/bdufqpz4u2guw4969zsf.png 
http://uptiki.com/images/p35n61q8lu2stpbrm8.png 
http://uptiki.com/images/q369vea46rgoow93iid6.png